<svg width="1280" height="720" xmlns="http://www.w3.org/2000/svg" xmlns:xlink="http://www.w3.org/1999/xlink" overflow="hidden"><g><rect x="0" y="0" width="1280" height="720" fill="#FFFFFF"/><path d="M640.5 55.5001 891.5 181 891.5 458 640.5 583.5 389.5 458 389.5 181Z" stroke="#2B649E" stroke-width="26.6667" stroke-linejoin="round" stroke-miterlimit="10" fill="none" fill-rule="evenodd"/><path d="M501.5 119.5 640.37 569.061" stroke="#2B649E" stroke-width="26.6667" stroke-miterlimit="8" fill="none" fill-rule="evenodd"/><path d="M516.5 119.5 891.972 459.676" stroke="#2B649E" stroke-width="26.6667" stroke-miterlimit="8" fill="none" fill-rule="evenodd"/><path d="M0 0 95.2195 325.463" stroke="#2B649E" stroke-width="26.6667" stroke-miterlimit="8" fill="none" fill-rule="evenodd" transform="matrix(-1 0 0 1 495.72 128.5)"/><path d="M507.5 119.5 891.557 191.305" stroke="#2B649E" stroke-width="26.6667" stroke-miterlimit="8" fill="none" fill-rule="evenodd"/><path d="M233 248.834C233 231.805 246.805 218 263.834 218L1010.17 218C1027.2 218 1041 231.805 1041 248.834L1041 372.166C1041 389.195 1027.2 403 1010.17 403L263.834 403C246.805 403 233 389.195 233 372.166Z" fill="#FFFFFF" fill-rule="evenodd"/><path d="M564.654 276.722 551.381 324.85 577.927 324.85ZM828.596 268.737 828.596 301.218 844.351 301.218C849.459 301.218 853.596 299.743 856.761 296.793 859.926 293.844 861.509 289.635 861.509 284.168 861.509 278.988 859.836 275.121 856.491 272.568 853.146 270.014 849.099 268.737 844.351 268.737ZM924.188 234.853 966.596 234.853 966.596 345.137 1020.55 345.137 1020.55 380.1 924.188 380.1ZM786.188 234.853 848.344 234.853C858.488 234.853 867.876 236.508 876.509 239.817 885.141 243.126 892.066 248.396 897.281 255.626 902.497 262.856 905.105 272.37 905.105 284.168 905.105 296.182 902.497 305.894 897.281 313.304 892.066 320.714 885.141 326.109 876.509 329.49 867.876 332.871 858.488 334.562 848.344 334.562L828.596 334.562 828.596 380.1 786.188 380.1ZM542.532 234.853 586.991 234.853 637.601 380.1 593.358 380.1 586.991 357.978 542.964 357.978 536.597 380.1 492.677 380.1ZM284.757 234.853 328.244 234.853 350.15 328.627 373.135 234.853 413.385 234.853 436.155 328.627 457.952 234.853 501.764 234.853 457.305 380.1 413.385 380.1 392.775 287.513 372.488 380.1 328.46 380.1ZM701.495 233.126C712.43 233.126 722.358 234.637 731.279 237.659 740.199 240.68 747.303 245.428 752.591 251.903 757.878 258.377 760.522 266.794 760.522 277.154L716.711 277.154C716.711 273.341 715.344 270.427 712.61 268.413 709.876 266.399 706.172 265.392 701.495 265.392 697.323 265.392 693.852 266.039 691.082 267.334 688.312 268.629 686.927 270.427 686.927 272.729 686.927 274.24 687.575 275.661 688.87 276.992 690.165 278.323 692.934 279.852 697.179 281.578 701.423 283.305 707.934 285.571 716.711 288.376 727.502 291.758 736.422 295.337 743.472 299.113 750.523 302.89 755.774 307.71 759.227 313.573 762.68 319.437 764.407 327.26 764.407 337.044 764.407 348.123 761.601 356.953 755.99 363.536 750.379 370.118 742.879 374.848 733.491 377.726 724.103 380.604 713.725 382.042 702.359 382.042 690.704 382.042 680.237 380.442 670.957 377.24 661.677 374.039 654.321 368.931 648.889 361.917 643.458 354.903 640.634 345.641 640.418 334.13L684.23 334.13C684.518 337.655 685.381 340.461 686.82 342.547 688.258 344.634 690.309 346.144 692.97 347.08 695.632 348.015 698.906 348.482 702.79 348.482 706.819 348.482 710.11 348.141 712.664 347.457 715.218 346.774 717.124 345.749 718.383 344.382 719.642 343.015 720.272 341.36 720.272 339.418 720.272 337.404 719.624 335.641 718.329 334.13 717.034 332.62 714.463 331.019 710.614 329.328 706.765 327.638 700.92 325.569 693.078 323.124 684.086 320.246 675.777 317.045 668.151 313.52 660.526 309.994 654.411 305.282 649.806 299.383 645.202 293.484 642.9 285.607 642.9 275.751 642.9 265.032 645.562 256.579 650.885 250.392 656.209 244.205 663.313 239.781 672.198 237.119 681.082 234.457 690.848 233.126 701.495 233.126Z" stroke="#2B649E" stroke-width="6" stroke-linejoin="round" stroke-miterlimit="10" fill="#2B649E" fill-rule="evenodd"/><text fill="#000000" fill-opacity="0" font-family="Arial,Arial_MSFontService,sans-serif" font-size="148.916" x="284.757" y="363.428">WASPL</text></g></svg>